<svg width="7" height="10" viewBox="0 0 7 10" fill="none" xmlns="http://www.w3.org/2000/svg">
<path d="M6.70469 0.639921C6.61188 0.568973 6.50146 0.51266 6.37981 0.474231C6.25815 0.435801 6.12766 0.416016 5.99587 0.416016C5.86407 0.416016 5.73358 0.435801 5.61192 0.474231C5.49027 0.51266 5.37985 0.568973 5.28704 0.639921L0.295309 4.42469C0.201736 4.49506 0.127464 4.57878 0.0767797 4.67102C0.026095 4.76326 0 4.8622 0 4.96213C0 5.06205 0.026095 5.16099 0.0767797 5.25323C0.127464 5.34548 0.201736 5.4292 0.295309 5.49956L5.28704 9.28433C5.37985 9.35528 5.49027 9.41159 5.61192 9.45002C5.73358 9.48845 5.86407 9.50824 5.99587 9.50824C6.12766 9.50824 6.25815 9.48845 6.37981 9.45002C6.50146 9.41159 6.61188 9.35528 6.70469 9.28433C6.79826 9.21396 6.87253 9.13024 6.92322 9.038C6.9739 8.94576 7 8.84682 7 8.7469C7 8.64697 6.9739 8.54803 6.92322 8.45579C6.87253 8.36355 6.79826 8.27983 6.70469 8.20946L2.4118 4.96213L6.70469 1.7148C6.79826 1.64443 6.87253 1.56071 6.92322 1.46847C6.9739 1.37622 7 1.27729 7 1.17736C7 1.07743 6.9739 0.978493 6.92322 0.886252C6.87253 0.79401 6.79826 0.71029 6.70469 0.639921Z" fill="black"/>
</svg>
