<svg width="22" height="24" viewBox="0 0 22 24" fill="none" xmlns="http://www.w3.org/2000/svg">
<path d="M14.9286 6.82697H15.4286V6.32697V5.59031C15.4286 4.47006 14.9536 3.40274 14.1199 2.62108C13.2873 1.84044 12.1645 1.40703 11 1.40703C9.8355 1.40703 8.71272 1.84044 7.8801 2.62108C7.04638 3.40274 6.57143 4.47006 6.57143 5.59031V6.32697V6.82697H7.07143H14.9286ZM16 6.32697V6.82697H16.5H21.5V21.0601C21.5 21.6982 21.2299 22.3172 20.7375 22.7789C20.244 23.2416 19.5681 23.5067 18.8571 23.5067H3.14286C2.4319 23.5067 1.75603 23.2416 1.2625 22.7789C0.770071 22.3172 0.5 21.6982 0.5 21.0601V6.82697H5.5H6V6.32697V5.59031C6 4.36609 6.51841 3.18494 7.4529 2.30881C8.38847 1.43164 9.66389 0.933716 11 0.933716C12.3361 0.933716 13.6115 1.43164 14.5471 2.30881C15.4816 3.18494 16 4.36609 16 5.59031V6.32697ZM1.57143 7.30029H1.07143V7.80029V21.0601C1.07143 21.5942 1.29804 22.0994 1.68971 22.4667C2.08028 22.8328 2.60351 23.0334 3.14286 23.0334H18.8571C19.3965 23.0334 19.9197 22.8328 20.3103 22.4667C20.702 22.0994 20.9286 21.5942 20.9286 21.0601V7.80029V7.30029H20.4286H1.57143Z" fill="black" stroke="black"/>
</svg>
