<svg width="27" height="23" viewBox="0 0 27 23" fill="none" xmlns="http://www.w3.org/2000/svg">
<path d="M13.9912 22.3288L13.9915 22.3284L24.5265 12.1412C24.5268 12.1408 24.5271 12.1405 24.5275 12.1402C25.7991 10.8954 26.5049 9.2264 26.5 7.49424C26.495 5.76163 25.7792 4.09585 24.4998 2.85762L24.4981 2.85597C23.871 2.24332 23.1218 1.75511 22.2936 1.42074C21.4653 1.08637 20.5751 0.91283 19.675 0.910723C18.775 0.908615 17.8839 1.07798 17.0539 1.40848C16.2241 1.73892 15.4725 2.22355 14.8423 2.83315L13.9912 22.3288ZM13.9912 22.3288C13.7463 22.566 13.3405 22.566 13.0957 22.3288L13.0954 22.3285L2.50267 12.081L2.15502 12.4404L2.50267 12.081C-0.158196 9.50688 -0.167857 5.35373 2.47568 2.79626C3.72042 1.59206 5.41348 0.900654 7.19139 0.877203C8.96785 0.853772 10.6791 1.49919 11.958 2.66862L12.1219 2.82402L13.1413 3.80839L13.4892 4.1444L13.8365 3.80779L14.842 2.83343L13.9912 22.3288ZM2.98023 3.21382C0.583323 5.53254 0.588295 9.32364 3.00552 11.6618C3.00553 11.6618 3.00555 11.6618 3.00556 11.6618L13.1949 21.5198L13.5425 21.856L13.8901 21.5199L24.0221 11.725L24.1746 11.5776V11.5669C25.2284 10.4581 25.8164 9.00512 25.8111 7.49221C25.8055 5.90955 25.1513 4.39673 23.9965 3.27806C23.432 2.7251 22.7595 2.2863 22.0186 1.98619C21.2774 1.68589 20.4818 1.53015 19.6782 1.52754C18.8746 1.52493 18.078 1.67549 17.3346 1.97094C16.5912 2.26641 15.9153 2.70116 15.3467 3.25089L15.3461 3.25144L13.7415 4.8077C13.7105 4.83775 13.6724 4.86271 13.6289 4.88011C13.5853 4.89753 13.5378 4.90675 13.4894 4.90675C13.441 4.90675 13.3936 4.89753 13.35 4.88011C13.3065 4.86271 13.2684 4.83775 13.2373 4.8077L13.2372 4.80759L11.6196 3.24207C11.6192 3.24168 11.6188 3.24129 11.6184 3.2409C11.0548 2.68848 10.3832 2.2501 9.64342 1.95026C8.90311 1.65021 8.10857 1.4946 7.30596 1.49199C6.50334 1.48937 5.70773 1.63981 4.96535 1.93501C4.22294 2.23022 3.54794 2.66458 2.98023 3.21382ZM2.98023 3.21382L3.32787 3.57318M2.98023 3.21382L3.32787 3.57318M3.32787 3.57318C3.84794 3.07004 4.46739 2.6711 5.1501 2.39962C5.83281 2.12815 6.56512 1.98958 7.30433 1.99198C8.04353 1.99439 8.77484 2.13773 9.45561 2.41364C10.1364 2.68956 10.753 3.09252 11.2695 3.59905L3.35318 11.3025C1.13743 9.15921 1.13575 5.69381 3.32787 3.57318Z" fill="black" stroke="black"/>
</svg>
