<svg width="8" height="8" viewBox="0 0 8 8" fill="none" xmlns="http://www.w3.org/2000/svg">
<path d="M7.90625 4C7.90625 4.12432 7.85686 4.24355 7.76896 4.33146C7.68105 4.41936 7.56182 4.46875 7.4375 4.46875H4.46875V7.4375C4.46875 7.56182 4.41936 7.68105 4.33146 7.76896C4.24355 7.85686 4.12432 7.90625 4 7.90625C3.87568 7.90625 3.75645 7.85686 3.66854 7.76896C3.58064 7.68105 3.53125 7.56182 3.53125 7.4375V4.46875H0.5625C0.43818 4.46875 0.318951 4.41936 0.231044 4.33146C0.143136 4.24355 0.09375 4.12432 0.09375 4C0.09375 3.87568 0.143136 3.75645 0.231044 3.66854C0.318951 3.58064 0.43818 3.53125 0.5625 3.53125H3.53125V0.5625C3.53125 0.43818 3.58064 0.318951 3.66854 0.231044C3.75645 0.143136 3.87568 0.09375 4 0.09375C4.12432 0.09375 4.24355 0.143136 4.33146 0.231044C4.41936 0.318951 4.46875 0.43818 4.46875 0.5625V3.53125H7.4375C7.56182 3.53125 7.68105 3.58064 7.76896 3.66854C7.85686 3.75645 7.90625 3.87568 7.90625 4Z" fill="black"/>
</svg>
